<svg width="672" height="138" viewBox="0 0 672 138" fill="none" xmlns="http://www.w3.org/2000/svg">
<path d="M28.3536 0H624.642L672 62L624.642 118H28.3536L0 59L28.3536 0Z" fill="#FFD172"/>
<g filter="url(#filter0_g_596_595)">
<path d="M654.154 103.114L654.154 52L633.09 86.045L654.154 103.114Z" fill="#FFD172"/>
<path d="M652.58 105.057L631.517 87.9873L629.806 86.6016L630.964 84.7295L652.028 50.6846L656.654 43.208L656.654 108.357L652.58 105.057Z" stroke="#100E0C" stroke-width="5"/>
</g>
<g filter="url(#filter1_g_596_595)">
<path d="M606.5 108.5L615.39 131.685L639 102L623.5 104L606.5 108.5Z" fill="#FFD172"/>
<path d="M606.5 108.5L615.39 131.685L639 102L623.5 104L606.5 108.5Z" stroke="#100E0C" stroke-width="4"/>
</g>
<defs>
<filter id="filter0_g_596_595" x="625.022" y="32.916" width="35.6326" height="82.1855" filterUnits="userSpaceOnUse" color-interpolation-filters="sRGB">
<feFlood flood-opacity="0" result="BackgroundImageFix"/>
<feBlend mode="normal" in="SourceGraphic" in2="BackgroundImageFix" result="shape"/>
<feTurbulence type="fractalNoise" baseFrequency="0.2083333283662796 0.2083333283662796" numOctaves="3" seed="1772" />
<feDisplacementMap in="shape" scale="3" xChannelSelector="R" yChannelSelector="G" result="displacedImage" width="100%" height="100%" />
<feMerge result="effect1_texture_596_595">
<feMergeNode in="displacedImage"/>
</feMerge>
</filter>
<filter id="filter1_g_596_595" x="602.335" y="97.8857" width="42.7998" height="39.2842" filterUnits="userSpaceOnUse" color-interpolation-filters="sRGB">
<feFlood flood-opacity="0" result="BackgroundImageFix"/>
<feBlend mode="normal" in="SourceGraphic" in2="BackgroundImageFix" result="shape"/>
<feTurbulence type="fractalNoise" baseFrequency="0.2083333283662796 0.2083333283662796" numOctaves="3" seed="1772" />
<feDisplacementMap in="shape" scale="3" xChannelSelector="R" yChannelSelector="G" result="displacedImage" width="100%" height="100%" />
<feMerge result="effect1_texture_596_595">
<feMergeNode in="displacedImage"/>
</feMerge>
</filter>
</defs>
</svg>
